<svg width="36" height="36" viewBox="0 0 36 36" fill="none" xmlns="http://www.w3.org/2000/svg">
<path d="M34.515 20.1162L8.715 20.1162H7.93501V17.1162H11.895L10.995 8.77623H3.43501L0.375 35.2962H8.715M8.715 35.2962V20.1162M8.715 35.2962H34.515V20.1162M29.955 7.93622C29.835 5.59622 33.975 6.67623 35.295 6.49623M11.955 17.1162H35.295V20.1162H34.515M19.335 7.93622C19.155 0.976219 31.335 4.03622 35.295 3.37622M6.43501 4.87622C6.37501 2.47622 8.53501 0.316221 10.935 0.376221H35.235M15.555 31.8162H27.675M15.555 35.2962V27.7362H27.675V35.2962M21.615 10.9962H17.055L16.275 17.0562H22.335L21.615 10.9962ZM32.235 10.9962H27.675L26.895 17.0562H32.955L32.235 10.9962Z" stroke="black" stroke-width="0.75" stroke-linecap="round" stroke-linejoin="round"/>
</svg>
