<svg width="36" height="36" viewBox="0 0 36 36" fill="none" xmlns="http://www.w3.org/2000/svg">
<path d="M17.415 11.645C17.545 12.005 17.6249 12.395 17.6349 12.805M17.415 11.645C16.905 10.285 15.605 9.315 14.065 9.315M14.065 9.315C15.605 9.315 16.915 10.285 17.415 11.645C17.545 12.005 17.6349 12.395 17.6349 12.805M17.6349 12.805C17.6349 12.835 17.6349 12.855 17.6349 12.885C17.6349 14.855 16.035 16.455 14.065 16.455M14.065 16.455C12.595 16.455 11.325 15.565 10.785 14.295M14.065 16.455C12.595 16.455 11.335 15.565 10.785 14.295M10.785 14.295C10.635 13.945 10.5349 13.555 10.5049 13.155M10.785 14.295C10.625 13.945 10.5349 13.555 10.5049 13.155M10.5049 13.155C10.5049 13.065 10.495 12.975 10.495 12.885M10.5049 13.155C10.4949 13.065 10.495 12.975 10.495 12.885M10.495 12.885C10.495 10.915 12.095 9.315 14.065 9.315M4.53497 5.13498H12.875M4.53497 6.92499H11.085M4.53497 9.30499H8.70496M30.745 23.015H23.595M30.745 21.225H25.3849M30.745 18.835H26.575M8.065 14.295L10.495 13.575M17.525 12.005L19.425 11.515M17.465 27.775V35.125M21.555 35.125L17.465 27.775L13.405 35.125M2.15497 2.755V25.385H33.125V2.755H2.15497ZM6.32495 16.455C5.33495 16.455 4.53497 15.655 4.53497 14.665C4.53497 13.675 5.33495 12.875 6.32495 12.875C6.97495 12.875 7.53497 13.225 7.84497 13.735C8.00497 14.005 8.10498 14.315 8.10498 14.655C8.10498 14.725 8.09496 14.795 8.08496 14.865C7.97496 15.745 7.235 16.435 6.315 16.435L6.32495 16.455ZM22.765 20.025L19.915 22.825C19.485 23.245 18.835 22.885 18.835 22.235V21.225L10.495 20.115C10.155 20.065 9.90497 19.785 9.90497 19.445C9.90497 19.105 10.155 18.815 10.495 18.775L18.835 17.665V16.645C18.835 15.995 19.485 15.635 19.915 16.055L22.765 18.855C23.085 19.185 23.085 19.705 22.765 20.035V20.025ZM33.725 0.375H1.565C0.905002 0.375 0.375 0.905002 0.375 1.565C0.375 2.225 0.905002 2.755 1.565 2.755H33.725C34.385 2.755 34.915 2.225 34.915 1.565C34.915 0.905002 34.385 0.375 33.725 0.375ZM33.725 25.395H1.565C0.905002 25.395 0.375 25.925 0.375 26.585C0.375 27.245 0.905002 27.775 1.565 27.775H33.725C34.385 27.775 34.915 27.245 34.915 26.585C34.915 25.925 34.385 25.395 33.725 25.395ZM7.84497 13.745C7.53497 13.225 6.96495 12.885 6.32495 12.885C5.33495 12.885 4.53497 13.685 4.53497 14.675C4.53497 15.665 5.33495 16.465 6.32495 16.465C7.23495 16.465 7.98497 15.775 8.09497 14.895C8.09497 14.825 8.11499 14.755 8.11499 14.685C8.11499 14.345 8.01498 14.035 7.85498 13.765L7.84497 13.745ZM19.915 16.035C19.485 15.615 18.835 15.975 18.835 16.625V17.645L10.495 18.755C10.155 18.805 9.90497 19.085 9.90497 19.425C9.90497 19.765 10.155 20.055 10.495 20.095L18.835 21.205V22.215C18.835 22.875 19.485 23.225 19.915 22.805L22.765 20.005C23.085 19.675 23.075 19.155 22.765 18.825L19.915 16.025V16.035ZM25.3849 4.20499C22.0949 4.20499 19.425 6.87498 19.425 10.165C19.425 10.395 19.445 10.625 19.465 10.845C19.515 11.245 19.595 11.635 19.715 12.005C20.495 14.385 22.735 16.115 25.375 16.115C28.665 16.115 31.325 13.445 31.335 10.155C31.335 6.865 28.665 4.19501 25.375 4.19501L25.3849 4.20499Z" stroke="black" stroke-width="0.75" stroke-linecap="round" stroke-linejoin="round"/>
</svg>
