<svg width="36" height="36" viewBox="0 0 36 36" fill="none" xmlns="http://www.w3.org/2000/svg">
<path d="M12.555 16.815V35.055H22.635V16.815H12.555Z" stroke="black" stroke-width="0.75" stroke-linecap="round" stroke-linejoin="round"/>
<path d="M29.775 6.55499L24.975 11.295L26.415 12.735L28.755 10.455V17.115H30.735V10.455L33.075 12.735L34.515 11.295L29.775 6.55499Z" stroke="black" stroke-width="0.75" stroke-linecap="round" stroke-linejoin="round"/>
<path d="M17.595 0.375L12.855 5.11499L14.235 6.55499L16.575 4.27499V10.935H18.615V4.27499L20.955 6.55499L22.335 5.11499L17.595 0.375Z" stroke="black" stroke-width="0.75" stroke-linecap="round" stroke-linejoin="round"/>
<path d="M5.41498 12.495L0.674988 17.295L2.11499 18.735L4.45496 16.395V23.055H6.435V16.395L8.77496 18.735L10.215 17.295L5.41498 12.495Z" stroke="black" stroke-width="0.75" stroke-linecap="round" stroke-linejoin="round"/>
<path d="M0.375 26.955V35.055H10.515V26.955H0.375Z" stroke="black" stroke-width="0.75" stroke-linecap="round" stroke-linejoin="round"/>
<path d="M24.675 20.895V35.055H34.815V20.895H24.675Z" stroke="black" stroke-width="0.75" stroke-linecap="round" stroke-linejoin="round"/>
</svg>
