<svg width="37" height="37" viewBox="0 0 37 37" fill="none" xmlns="http://www.w3.org/2000/svg">
<path d="M15.595 32.665L15.585 32.655M15.595 32.665L18.025 27.175M15.595 32.665H20.465M18.025 27.175L20.465 32.665L21.075 35.705H14.985L15.595 32.665M15.585 32.655L18.025 27.185C17.725 27.185 17.425 27.165 17.135 27.125C17.115 27.125 17.095 27.125 17.065 27.125C16.805 27.085 16.555 27.035 16.305 26.965C16.225 26.945 16.135 26.915 16.055 26.895C15.875 26.845 15.705 26.785 15.525 26.715C15.335 26.645 15.155 26.565 14.975 26.475C14.915 26.445 14.845 26.415 14.785 26.385C13.535 25.745 12.415 24.775 11.505 23.595L11.455 23.575L11.315 23.525L10.705 25.965L11.595 27.185H11.625L15.575 32.655H15.585ZM15.585 32.655L11.635 27.185H11.335C8.415 27.555 5.185 28.895 1.835 30.655C0.925003 31.145 0.375 32.055 0.375 33.095V35.715H14.995L15.605 32.665L15.585 32.655ZM18.025 27.175C17.725 27.175 17.425 27.155 17.135 27.115C17.105 27.115 17.085 27.115 17.065 27.115C16.805 27.075 16.555 27.015 16.305 26.955C16.225 26.935 16.135 26.915 16.055 26.885C15.875 26.835 15.695 26.775 15.525 26.705C15.335 26.625 15.155 26.555 14.975 26.465C14.905 26.435 14.845 26.405 14.785 26.375H14.795C13.545 25.735 12.425 24.765 11.515 23.585L11.465 23.565C9.875 21.515 8.895 18.835 8.895 16.215V14.975H27.165V16.215C27.165 18.835 26.185 21.515 24.595 23.565M19.745 26.955C19.495 27.015 19.245 27.075 18.985 27.115C18.955 27.115 18.935 27.115 18.915 27.115C18.625 27.155 18.325 27.175 18.025 27.175M18.025 27.175L20.465 32.655H20.475M18.915 27.115C18.945 27.115 18.965 27.115 18.985 27.115M18.985 27.115C19.245 27.075 19.495 27.025 19.745 26.955M19.745 26.955C19.825 26.935 19.915 26.905 19.995 26.885M19.745 26.955C19.825 26.935 19.915 26.915 19.995 26.885M19.995 26.885C20.175 26.835 20.345 26.775 20.525 26.705M19.995 26.885C20.175 26.835 20.355 26.775 20.525 26.705M20.525 26.705C20.715 26.635 20.895 26.555 21.075 26.465M20.525 26.705C20.715 26.625 20.895 26.555 21.075 26.465M24.595 23.565L24.545 23.585C23.635 24.765 22.515 25.735 21.265 26.375C21.205 26.405 21.135 26.435 21.075 26.465M21.075 26.465C21.145 26.435 21.205 26.405 21.265 26.375M24.595 23.565L24.735 23.515L25.345 25.955L24.455 27.175H24.425L20.475 32.655M26.915 6.77499L22.285 8.88501L23.195 3.26498C22.445 2.85498 20.585 2.20499 20.455 2.20499V1.595C20.455 0.925001 19.905 0.375 19.235 0.375H16.795C16.125 0.375 15.575 0.925001 15.575 1.595V2.20499C15.445 2.20499 13.585 2.85498 12.835 3.26498L13.745 8.88501L9.115 6.77499C8.185 8.26499 7.645 10.015 7.645 11.955V12.565H28.355V11.955C28.355 10.015 27.815 8.26499 26.885 6.77499H26.915ZM26.915 6.77499C26.915 6.77499 26.855 6.67501 26.815 6.63501C26.645 6.37501 26.465 6.12501 26.275 5.88501C25.855 5.34501 25.375 4.84499 24.845 4.39499C24.335 3.96499 23.785 3.575 23.195 3.245V3.27499L22.285 8.89499L26.915 6.785V6.77499ZM20.475 32.655H20.485L24.435 27.185H24.735C27.655 27.545 30.885 28.885 34.235 30.655H34.245C35.155 31.145 35.705 32.055 35.705 33.095V35.715H21.085L20.475 32.655ZM15.595 2.20499V6.01498M20.475 2.20499V6.01498M29.605 14.975C29.975 14.975 30.215 14.135 30.215 13.765C30.215 13.395 29.975 12.555 29.605 12.555H6.455C6.085 12.555 5.845 13.395 5.845 13.765C5.845 14.135 6.085 14.975 6.455 14.975H29.605ZM12.855 3.26498V3.23499C12.255 3.56499 11.705 3.95501 11.195 4.38501C11.055 4.50501 10.915 4.63498 10.775 4.76498C10.775 4.76498 10.765 4.775 10.755 4.785C10.575 4.965 10.395 5.14499 10.225 5.33499C10.125 5.44499 10.025 5.56499 9.925 5.67499C9.875 5.74499 9.815 5.805 9.765 5.875C9.575 6.115 9.395 6.365 9.225 6.625C9.195 6.675 9.155 6.71498 9.125 6.76498L13.755 8.875L12.845 3.255L12.855 3.26498Z" stroke="black" stroke-width="0.75" stroke-linecap="round" stroke-linejoin="round"/>
</svg>
