<svg width="35" height="38" viewBox="0 0 35 38" fill="none" xmlns="http://www.w3.org/2000/svg">
<path d="M5.22757 4.35404C7.50757 4.05404 9.84757 4.77404 11.2876 6.39404C12.9076 8.13404 12.6676 11.134 10.6876 12.634V15.274L7.92758 13.894C7.38758 13.954 6.90758 14.014 6.36758 14.014C4.68758 14.014 3.24757 13.534 2.10757 12.574C-0.232427 10.834 -0.172427 7.53404 2.10757 5.73404C3.00757 5.01404 4.02757 4.53404 5.22757 4.35404ZM5.22757 4.35404C5.40757 3.39404 6.36757 2.55404 7.38757 2.85404C6.84757 0.0940433 11.2875 -0.685957 11.5875 2.19404C12.5475 1.29404 14.0476 2.49405 13.3876 3.63405C15.0076 3.87405 15.4276 6.15404 13.6276 6.57404M11.9476 7.35405C13.3876 6.51405 15.0676 6.03405 16.8676 6.03405C18.6676 6.03405 20.7075 6.57405 22.0875 7.35405M22.0875 7.35405L20.5875 5.31404C21.0675 4.71404 21.6075 4.17404 22.2675 3.69404L24.3075 5.13404C24.4875 5.07404 24.6675 4.95404 24.9675 4.89404L25.3275 2.37404C26.2875 2.25404 26.7675 2.25404 27.7275 2.37404L28.0875 4.89404C28.2675 4.95404 28.5075 5.01404 28.6875 5.13404L30.7275 3.69404C31.3875 4.17404 31.9875 4.71404 32.4075 5.31404L30.9675 7.35405C31.0875 7.53405 31.1475 7.77404 31.2075 8.01404L33.6675 8.43404C33.8475 9.09404 33.8475 10.114 33.6675 10.774L31.2075 11.194C31.1475 11.434 31.0875 11.674 30.9675 11.854L32.4075 13.894C31.9275 14.554 31.3275 15.094 30.7275 15.514L28.6875 14.014C28.3875 14.134 28.2075 14.254 28.0275 14.314L27.6675 16.774C27.2475 16.774 26.8875 16.834 26.5875 16.834H26.5275C26.1675 16.834 25.8075 16.834 25.3275 16.774L24.9675 14.314C24.7275 14.194 24.4875 14.134 24.3075 14.014L22.2675 15.514C21.6075 15.094 21.0675 14.554 20.5875 13.894L22.0875 11.854C22.0275 11.614 21.9075 11.434 21.8475 11.194L19.3275 10.774C19.2075 9.99404 19.2075 9.15404 19.3275 8.43404L21.8475 8.01404C21.9075 7.77404 21.9675 7.53405 22.0875 7.35405ZM26.2275 16.834C25.9275 18.034 25.3875 19.414 24.5475 21.274C23.2875 24.094 22.6276 26.194 22.6276 27.574M22.6276 27.574H23.5875C22.9275 27.874 22.6276 28.294 22.6276 28.774C22.6276 29.254 22.9275 29.674 23.5875 29.974C22.9275 30.334 22.6276 30.694 22.6276 31.174C22.6276 31.654 22.9275 32.074 23.5875 32.374C22.9275 32.734 22.6276 33.154 22.6276 33.634C22.6276 34.114 22.9275 34.414 23.5875 34.774H21.4276M22.6276 27.574H11.1675M21.4276 34.774C21.4276 35.374 21.0075 35.914 20.1075 36.334C19.2675 36.754 18.1875 36.934 16.9875 36.934C15.7875 36.934 14.7076 36.754 13.8676 36.334C13.0276 35.914 12.5475 35.374 12.5475 34.774M21.4276 34.774H12.5475M12.5475 34.774H10.2675C10.9275 34.414 11.2275 34.114 11.2275 33.634C11.2275 33.154 10.9275 32.734 10.2675 32.374C10.9275 32.074 11.2275 31.654 11.2275 31.174C11.2875 30.454 10.9275 30.274 10.2675 29.974C10.9275 29.674 11.2275 29.254 11.2275 28.774C11.2275 28.294 10.9275 27.934 10.2675 27.574H11.1675M11.1675 27.574C11.1675 26.254 10.5076 24.154 9.24756 21.334C7.92756 18.514 7.32751 16.414 7.32751 15.094C7.32751 14.674 7.32757 14.314 7.38757 13.954M14.8876 20.074H18.6675M14.8876 21.694H16.5076M14.2875 29.914H19.7476M14.2875 32.014H19.7476M21.4276 24.154V17.434H12.3676V24.154H21.4276ZM29.1075 9.57404C29.1075 11.014 27.9075 12.214 26.4675 12.214C25.0275 12.214 23.8275 11.014 23.8275 9.57404C23.8275 8.13404 25.0275 6.93404 26.4675 6.93404C27.9075 6.93404 29.1075 8.07404 29.1075 9.57404Z" stroke="black" stroke-width="0.75" stroke-linecap="round" stroke-linejoin="round"/>
</svg>
