<svg width="37" height="37" viewBox="0 0 37 37" fill="none" xmlns="http://www.w3.org/2000/svg">
<g clip-path="url(#clip0_2078_17)">
<path d="M34.3924 20.6982H36.6692M34.3924 20.6982V22.1827M36.6692 22.1827V20.6982L36.6108 12.9331V12.6476L35.5016 9.33605L34.3924 12.6476V20.6982M36.6692 22.1827H34.3924M36.6692 22.1827V23.6672C36.6692 24.6949 34.3924 24.752 34.3924 23.6672V22.1827M16.12 1.97064V8.65089H23.0086V1H16.12V1.97064ZM16.12 1.97064H9.40644V16.3589M16.5286 29.7194H31.1816V7.33769L25.7524 1.97064H23.0086M25.7524 1.97064V7.33769H31.1816M9.40644 16.3589H14.3686C14.9524 16.3589 15.4778 16.5873 15.8865 16.9298C16.2951 17.2724 16.5286 17.7863 16.5286 18.3573V29.7194M9.40644 16.3589H3.15997C2.57619 16.3589 2.05078 16.5873 1.64214 16.9298C1.23349 17.3295 1 17.7863 1 18.3573V34.0016C1 34.5726 1.23349 35.0294 1.64214 35.429C2.05078 35.8287 2.57619 36 3.15997 36H14.427C15.0108 36 15.5362 35.7716 15.9449 35.429C16.3535 35.0294 16.5286 34.5726 16.5286 34.0016V29.7194M34.3924 12.9902H36.6108M21.6076 16.8728H26.6281M21.6076 21.4975H26.6281M21.6076 19.3279H26.6281M14.0767 13.3328H26.2778M3.74373 22.925C3.51995 22.925 3.34483 23.0867 3.3351 23.3056V26.8075C3.3351 26.9788 3.56859 27.2072 3.80211 27.2072H7.36322C7.58701 27.2072 7.76212 27.0454 7.77185 26.8265V23.3246C7.77185 23.1058 7.60648 22.9345 7.3827 22.925H3.74373ZM7.59673 29.8907C7.53835 29.8336 7.4216 29.7765 7.30485 29.7765H3.74373C3.51995 29.7765 3.34483 29.9383 3.3351 30.1572V33.602C3.3351 33.8208 3.50053 33.9921 3.72431 34.0016H7.30485C7.52863 34.0016 7.70375 33.8399 7.71348 33.621V30.1762C7.71348 30.062 7.71348 29.9478 7.59673 29.8907ZM13.7848 29.7765H10.2238C9.99025 29.7765 9.87351 29.9478 9.87351 30.1762V33.602C9.87351 33.8303 10.0486 34.0016 10.2238 34.0016H13.7848C14.0086 34.0016 14.1838 33.8399 14.1935 33.621V30.1762C14.1935 30.062 14.1351 29.9478 14.0767 29.8907C14.0183 29.8336 13.9016 29.7765 13.7848 29.7765ZM10.2238 22.925C9.99025 22.925 9.87351 23.0962 9.87351 23.3246C9.93189 24.2953 9.87351 26.8075 9.87351 26.8075C9.87351 26.9788 10.0486 27.2072 10.2238 27.2072H13.7848C14.0086 27.2072 14.1838 27.0454 14.1935 26.8265V23.3246C14.1935 23.1058 14.0281 22.9345 13.8043 22.925H10.2238ZM13.9016 18.4144H3.62698C3.39347 18.4144 3.15997 18.6427 3.15997 18.8711V20.7553C3.15997 20.9837 3.39347 21.2121 3.62698 21.2121H13.9016C14.1351 21.2121 14.3686 21.0408 14.3686 20.7553V18.8711C14.3686 18.6427 14.1935 18.4144 13.9016 18.4144Z" stroke="#010101" stroke-width="0.75" stroke-linecap="round" stroke-linejoin="round"/>
</g>
<defs>
<clipPath id="clip0_2078_17">
<rect width="37" height="37" fill="white"/>
</clipPath>
</defs>
</svg>
