<svg width="37" height="37" viewBox="0 0 37 37" fill="none" xmlns="http://www.w3.org/2000/svg">
<path d="M9.56191 3.85016C12.3479 1.96906 15.4749 1 19.0569 1C23.0936 1 26.6188 2.2541 29.6321 4.70524M32.3044 7.38437L31.5652 8.12541H28.893V5.44628L29.6321 4.70524L31.9063 2.42508V5.16124H34.5786L32.3044 7.38437ZM9.61877 32.2948C8.70907 31.6678 7.85621 30.9267 7.00337 30.1287C3.70571 26.8225 2 22.7752 2 18.044C2 13.3127 3.64886 9.32248 7.00337 6.01629C7.11708 5.90228 7.17393 5.78829 7.34449 5.67428M16.6121 34.917C15.7498 34.8029 14.8969 34.6319 14.0535 34.4039M14.0535 34.4039V31.5538H9.61877V36H14.0535V34.4039ZM23.4916 34.5179C22.6956 34.7459 21.8428 34.8599 20.99 34.974M32.3044 7.38437C34.8061 10.4055 36 13.9967 36 17.987C36 22.7182 34.3512 26.7655 30.9967 30.0717C30.0301 31.0407 29.0067 31.8958 27.8696 32.5798M33.0435 5.16124C34.8629 3.90717 33.1003 2.19709 31.9063 4.0212M28.893 6.98536L27.0736 8.75245L23.776 12.1726L20.3646 15.5358M28.2676 9.94953L24.913 13.3127L21.5585 16.7329M21.5585 16.7329C22.582 18.557 21.1037 20.9511 19.0569 20.8941C18.2609 20.8941 17.6355 20.6091 17.0669 20.0391C15.9298 18.956 15.9298 17.0749 17.0669 15.9919C17.6355 15.4788 18.2609 15.1938 19.0569 15.1938C19.5117 15.1938 19.9666 15.2508 20.3646 15.4788L18.4315 17.4169C17.6923 18.215 18.8863 19.4121 19.6255 18.671L21.5585 16.7329ZM24.913 13.3127C26.0502 14.6808 26.6188 16.2769 26.6188 18.044C26.6188 19.8111 26.1071 21.3502 25.0268 22.6613M28.2676 9.94953L30.0301 8.12541M28.2676 9.94953C30.3144 12.2297 31.281 14.9088 31.281 17.987C31.281 21.2932 30.1439 24.1433 27.9265 26.4805M23.4916 24.1433C22.1839 25.1124 20.7057 25.6254 19 25.6254C16.8963 25.6254 15.1338 24.8844 13.6556 23.4023C12.1773 21.9202 11.4381 20.1531 11.4381 18.044C11.4381 15.9349 12.1773 14.1678 13.6556 12.6857C15.1338 11.2036 16.8963 10.4626 19 10.4626C20.8194 10.4626 22.3546 11.0326 23.7191 12.1726M16.6121 30.1287C14.2241 29.6726 12.1773 28.5326 10.3579 26.7085C7.96991 24.3143 6.77596 21.4072 6.77596 17.987C6.77596 14.5668 7.96991 11.7166 10.3579 9.32249C12.7458 6.92835 15.6455 5.73128 19.0569 5.73128C22.1839 5.73128 24.8562 6.75733 27.1304 8.75245M23.4916 29.5016C22.6767 29.7866 21.8428 30.0147 20.99 30.1857M21.0469 27.1075H16.6121V36H21.0469V27.1075ZM7.34449 5.44628L7.28764 5.61728L7.00337 7.32737L8.70905 6.41532L10.3579 7.32737L10.0736 5.44628L11.4381 4.1352L9.50506 3.85016L8.70905 2.14008L7.85618 3.85016L5.97994 4.1352L7.34449 5.44628ZM27.9265 22.6613H23.4916V36H27.9265V22.6613Z" stroke="black" stroke-width="0.75" stroke-linecap="round" stroke-linejoin="round"/>
</svg>
