<svg width="37" height="37" viewBox="0 0 37 37" fill="none" xmlns="http://www.w3.org/2000/svg">
<path d="M35.06 1.28863C34.81 1.06863 34.48 0.968631 34.15 1.00863L29.5 1.58862C28.86 1.66862 28.41 2.24864 28.49 2.88864C28.57 3.52864 29.15 3.97861 29.79 3.89861L31.54 3.67861C25.63 11.0386 18.36 14.7887 13.14 16.6587C7.04999 18.8387 2.35 19.0186 2.3 19.0186C1.66 19.0386 1.16 19.5787 1.17 20.2187C1.19 20.8487 1.71 21.3487 2.33 21.3487C2.34 21.3487 2.35 21.3487 2.37 21.3487C2.57 21.3487 7.42001 21.1686 13.84 18.8886C17.6 17.5486 21.13 15.7486 24.32 13.5486C27.63 11.2686 30.58 8.53863 33.13 5.41863V6.82864C33.13 7.46864 33.65 7.98864 34.29 7.98864C34.93 7.98864 35.45 7.46864 35.45 6.82864V2.17861C35.45 1.84861 35.31 1.52862 35.06 1.30862V1.28863Z" stroke="black" stroke-width="0.75" stroke-linecap="round" stroke-linejoin="round"/>
<path d="M16.93 24.6487C16.93 24.3487 16.68 24.0987 16.38 24.0987H10.86C10.56 24.0987 10.31 24.3487 10.31 24.6487V35.6386H16.93V24.6487Z" stroke="black" stroke-width="0.75" stroke-linecap="round" stroke-linejoin="round"/>
<path d="M7.62 28.8487C7.62 28.5487 7.37 28.2986 7.07 28.2986H1.55C1.25 28.2986 1 28.5487 1 28.8487V35.6386H7.62V28.8487Z" stroke="black" stroke-width="0.75" stroke-linecap="round" stroke-linejoin="round"/>
<path d="M26.24 21.8886C26.24 21.5886 25.99 21.3387 25.69 21.3387H20.17C19.87 21.3387 19.62 21.5886 19.62 21.8886V35.6386H26.24V21.8886Z" stroke="black" stroke-width="0.75" stroke-linecap="round" stroke-linejoin="round"/>
<path d="M35.55 15.8086C35.55 15.5086 35.3 15.2586 35 15.2586H29.48C29.18 15.2586 28.93 15.5086 28.93 15.8086V35.6286H35.55V15.8086Z" stroke="black" stroke-width="0.75" stroke-linecap="round" stroke-linejoin="round"/>
</svg>
