<svg width="36" height="36" viewBox="0 0 36 36" fill="none" xmlns="http://www.w3.org/2000/svg">
<path d="M9.84332 33.3954C9.38332 33.3954 9.02338 33.0255 9.02338 32.5755M9.84332 33.3954C10.2933 33.3954 10.6633 33.0255 10.6633 32.5755M9.84332 33.3954C10.2962 33.3954 10.6633 33.0284 10.6633 32.5755M9.84332 33.3954C9.39045 33.3954 9.02338 33.0284 9.02338 32.5755M9.02338 32.5755C9.02338 32.1255 9.39332 31.7555 9.84332 31.7555M9.02338 32.5755C9.02338 32.1226 9.39045 31.7555 9.84332 31.7555M9.84332 31.7555C10.2933 31.7555 10.6633 32.1255 10.6633 32.5755M9.84332 31.7555C10.2962 31.7555 10.6633 32.1226 10.6633 32.5755M12.2233 5.33548L14.3433 7.40546L13.8433 10.3255C13.7633 10.7755 14.0633 11.1955 14.5133 11.2755C14.6933 11.3055 14.8733 11.2755 15.0333 11.1955L17.6534 9.81546L20.2734 11.1955C20.6734 11.4055 21.1733 11.2555 21.3833 10.8455C21.4633 10.6855 21.4934 10.5055 21.4634 10.3255L20.9634 7.40546L23.0834 5.33548C23.4134 5.01548 23.4133 4.49547 23.0933 4.16547C22.9633 4.03547 22.8033 3.95548 22.6233 3.92548L19.6933 3.49549L18.3833 0.835485C18.1833 0.425485 17.6833 0.25549 17.2833 0.46549C17.1233 0.54549 16.9933 0.675485 16.9133 0.835485L15.6033 3.49549L12.6733 3.92548C12.2233 3.99548 11.9133 4.40547 11.9733 4.85547C12.0033 5.03547 12.0834 5.20548 12.2134 5.32548L12.2233 5.33548ZM34.9333 13.0555C34.8833 12.8855 34.7834 12.7255 34.6334 12.6155L32.2634 10.8355L32.3834 7.87546C32.4034 7.42546 32.0533 7.03547 31.5933 7.01547C31.4133 7.01547 31.2334 7.06547 31.0834 7.16547L28.6633 8.87546L25.8834 7.84546C25.4534 7.68546 24.9834 7.90548 24.8234 8.33548C24.7634 8.50548 24.7533 8.69548 24.8133 8.86548L25.6833 11.6955L23.8433 14.0255C23.5633 14.3855 23.6233 14.9055 23.9833 15.1855C24.1233 15.2955 24.3033 15.3555 24.4833 15.3655L27.4434 15.4055L29.0834 17.8755C29.2334 18.1055 29.4934 18.2455 29.7734 18.2455C29.8134 18.2455 29.8434 18.2455 29.8834 18.2455C30.1934 18.2055 30.4533 17.9955 30.5533 17.6955L31.5134 14.8855L34.3633 14.0854C34.8033 13.9654 35.0533 13.5055 34.9333 13.0655V13.0555ZM7.90341 15.4055L10.8634 15.3655C11.3234 15.3655 11.6834 14.9855 11.6734 14.5255C11.6734 14.3455 11.6034 14.1655 11.4934 14.0255L9.65341 11.6955L10.5234 8.86548C10.6534 8.43548 10.4134 7.96548 9.98336 7.83548C9.81336 7.78548 9.62339 7.78546 9.45339 7.84546L6.67337 8.87546L4.25338 7.16547C3.88338 6.90547 3.36336 6.99548 3.10336 7.36548C3.00336 7.51548 2.94339 7.69546 2.95339 7.87546L3.07339 10.8355L0.703395 12.6155C0.343394 12.8855 0.26336 13.4055 0.54336 13.7655C0.65336 13.9055 0.803363 14.0155 0.983363 14.0655L3.8334 14.8655L4.79336 17.6755C4.94336 18.1055 5.41335 18.3355 5.84335 18.1855C6.01335 18.1255 6.16339 18.0155 6.26339 17.8655L7.90341 15.3955V15.4055ZM29.2034 23.1655C29.2034 22.2555 28.4633 21.5154 27.5533 21.5154H21.5134V17.7355C21.5134 16.7055 21.5134 14.6554 18.8134 14.3954C18.5134 14.3654 18.2434 14.5854 18.2134 14.8954C18.2134 14.9154 18.2134 14.9255 18.2134 14.9455V18.6755C18.2134 18.7755 18.1834 18.8754 18.1334 18.9654L16.5634 21.5154H16.6334L13.2734 23.7154V32.5055C13.2734 33.7155 14.2533 34.7054 15.4733 34.7054H26.4634C27.3734 34.7054 28.1133 33.9655 28.1133 33.0555C28.1133 32.1455 27.3734 31.4054 26.4634 31.4054H27.0134C27.9234 31.4054 28.6633 30.6655 28.6633 29.7555C28.6633 28.8455 27.9234 28.1055 27.0134 28.1055H27.5634C28.4734 28.1055 29.2134 27.3654 29.2134 26.4554C29.2134 25.5454 28.4734 24.8055 27.5634 24.8055C28.4734 24.8055 29.2134 24.0654 29.2134 23.1554L29.2034 23.1655ZM12.4534 21.5154H6.96338C6.50338 21.5154 6.14337 21.8854 6.14337 22.3354V33.8755C6.14337 34.3355 6.51338 34.6955 6.96338 34.6955H12.4534C12.9134 34.6955 13.2734 34.3255 13.2734 33.8755V22.3354C13.2734 21.8754 12.9034 21.5154 12.4534 21.5154Z" stroke="black" stroke-width="0.75" stroke-linecap="round" stroke-linejoin="round"/>
</svg>
