<svg width="34" height="33" viewBox="0 0 34 33" fill="none" xmlns="http://www.w3.org/2000/svg">
<path d="M26.515 5.935L20.955 0.375H0.375V32.625H26.515V5.935ZM20.955 0.375V5.935H26.515M14.835 22.055L11.495 23.165L12.605 19.825L12.615 19.835L30.415 2.03499L32.635 4.25499L14.835 22.055ZM12.615 19.835L14.835 22.055M3.88501 6.325L4.99501 7.435C5.10501 7.545 5.24501 7.59499 5.38501 7.59499C5.52501 7.59499 5.66501 7.545 5.77501 7.435L9.11501 4.09499M3.88501 13.555L4.99501 14.665C5.10501 14.775 5.24501 14.825 5.38501 14.825C5.52501 14.825 5.66501 14.775 5.77501 14.665L9.11501 11.325M3.16501 25.955H7.61501V30.405H3.16501V25.955ZM3.16501 18.725H7.61501V23.175H3.16501V18.725ZM3.16501 11.495H7.61501V15.945H3.16501V11.495ZM3.16501 4.265H7.61501V8.715H3.16501V4.265Z" stroke="black" stroke-width="0.75" stroke-linecap="round" stroke-linejoin="round"/>
</svg>
